<svg xmlns="http://www.w3.org/2000/svg" xmlns:xlink="http://www.w3.org/1999/xlink" width="150.126" height="110.39" viewBox="0 0 150.126 110.39">
  <defs>
    <clipPath id="clip-path">
      <rect id="Rectangle_2356" data-name="Rectangle 2356" width="150.126" height="110.39" fill="#919191"/>
    </clipPath>
  </defs>
  <g id="Groupe_6193" data-name="Groupe 6193" transform="translate(0 0)" opacity="0.2">
    <g id="Groupe_6192" data-name="Groupe 6192" transform="translate(0 0)" clip-path="url(#clip-path)">
      <path id="Tracé_4089" data-name="Tracé 4089" d="M122.626,97.91H27.477c0,2.565.01,5.059,0,7.555-.018,3.5-1.4,4.891-4.938,4.908q-7.55.031-15.1,0c-3.365-.019-4.817-1.5-4.819-4.833,0-15.294.029-30.589-.019-45.884A19.142,19.142,0,0,1,7.689,46.48c2.042-2.309,4.056-4.646,6.246-7.158-3.267-.915-6.337-1.779-9.41-2.636-3.114-.87-4.845-3.028-4.477-5.595.411-2.86,2.51-4.506,5.764-4.512,2.129,0,4.265.1,6.387-.026a8.111,8.111,0,0,1,6.755,2.662c.3.319.657.587,1.147,1.021C21.422,27.4,22.594,24.652,23.968,22c2.22-4.277,4.622-8.458,6.861-12.725,2.478-4.722,6.532-7.043,11.641-7.45C51.777,1.091,61.1.236,70.42.045c9.407-.19,18.833.247,28.238.66a91.628,91.628,0,0,1,11.27,1.552,11.446,11.446,0,0,1,8.587,5.934c3.359,6.214,6.642,12.469,9.933,18.719.532,1.01.952,2.078,1.408,3.086.232-.024.407.01.465-.056,2.444-2.823,5.545-3.749,9.194-3.389,1.726.169,3.483.015,5.224.032a5.162,5.162,0,0,1,5.351,4.565,5.255,5.255,0,0,1-4,5.438c-3.2.907-6.416,1.75-9.923,2.7,2.155,2.5,4.109,4.84,6.153,7.1a19.088,19.088,0,0,1,5.17,13.327c-.053,15.231-.016,30.46-.019,45.69,0,3.514-1.392,4.945-4.872,4.961q-7.55.034-15.1,0c-3.477-.019-4.861-1.455-4.872-4.966-.008-2.439,0-4.88,0-7.5M25.207,36.19a476.13,476.13,0,0,1,100,.026c-4.716-8.757-9.1-17.033-13.671-25.2a4.832,4.832,0,0,0-3.193-1.783,107.619,107.619,0,0,0-13.019-1.56C85.4,7.341,75.46,7.06,65.537,7.307c-7.9.2-15.779,1.178-23.662,1.867a4.824,4.824,0,0,0-4.08,2.818c-1.231,2.4-2.713,4.672-3.948,7.071-2.875,5.588-5.666,11.219-8.641,17.128m99.86,32.767a14.979,14.979,0,0,0,8.589-2.088,8.565,8.565,0,0,0,4.049-8.928,9.251,9.251,0,0,0-6.813-7.358c-6.369-1.576-12.535,2.381-14.074,9.033-1.137,4.911.823,8.065,5.68,9.076a24.786,24.786,0,0,0,2.568.265m-100.168,0c.836-.066,1.481-.092,2.118-.171,4.441-.552,6.86-3.375,6.572-7.655A11.934,11.934,0,0,0,21.113,50.253a9.151,9.151,0,0,0-8.315,6.2,8.512,8.512,0,0,0,2.26,9.352c2.86,2.563,6.338,3.218,9.841,3.152m50.14,13.14c4.959,0,9.92-.031,14.879.018,1.636.016,2.378-.619,2.312-2.281-.061-1.542-.013-3.091-.013-4.636,0-1.391-.586-2.155-2.083-2.152q-15.071.024-30.144,0c-1.466,0-2.112.679-2.083,2.121.029,1.481.084,2.968-.015,4.445-.124,1.836.615,2.536,2.46,2.509,4.895-.074,9.791-.026,14.685-.024" transform="translate(0 0)" fill="#919191"/>
    </g>
  </g>
</svg>
