<svg id="Groupe_4571" data-name="Groupe 4571" xmlns="http://www.w3.org/2000/svg" xmlns:xlink="http://www.w3.org/1999/xlink" width="246.175" height="75.911" viewBox="0 0 246.175 75.911">
  <defs>
    <clipPath id="clip-path">
      <path id="Tracé_3402" data-name="Tracé 3402" d="M40.568,50.607a21.8,21.8,0,1,0,21.8-21.8,21.8,21.8,0,0,0-21.8,21.8" transform="translate(-40.568 -28.803)" fill="none"/>
    </clipPath>
    <clipPath id="clip-path-2">
      <rect id="Rectangle_1824" data-name="Rectangle 1824" width="246.175" height="75.911" fill="none"/>
    </clipPath>
  </defs>
  <g id="Groupe_4568" data-name="Groupe 4568" transform="translate(20.91 14.846)">
    <g id="Groupe_4567" data-name="Groupe 4567" clip-path="url(#clip-path)">
      <path id="Tracé_3392" data-name="Tracé 3392" d="M82.8,47.126H28.2a1.812,1.812,0,0,1,0-3.623H82.8a1.812,1.812,0,0,1,0,3.623" transform="translate(-33.698 -35.926)" fill="#1d1e1c"/>
      <path id="Tracé_3393" data-name="Tracé 3393" d="M82.8,47.126H28.2a1.812,1.812,0,0,1,0-3.623H82.8a1.812,1.812,0,0,1,0,3.623" transform="translate(-33.698 -35.926)" fill="#5c5c5c"/>
      <path id="Tracé_3394" data-name="Tracé 3394" d="M82.8,32.625H28.2A1.812,1.812,0,0,1,28.2,29H82.8a1.812,1.812,0,0,1,0,3.623" transform="translate(-33.698 -28.899)" fill="#5c5c5c"/>
      <path id="Tracé_3395" data-name="Tracé 3395" d="M82.8,18.124H28.2a1.812,1.812,0,0,1,0-3.623H82.8a1.812,1.812,0,0,1,0,3.623" transform="translate(-33.698 -21.873)" fill="#1d1e1c"/>
      <path id="Tracé_3396" data-name="Tracé 3396" d="M82.8,3.623H28.2A1.812,1.812,0,0,1,28.2,0H82.8a1.812,1.812,0,0,1,0,3.623" transform="translate(-33.698 -14.846)" fill="#1d1e1c"/>
      <path id="Tracé_3397" data-name="Tracé 3397" d="M81.168,97.22a1.812,1.812,0,0,1-1.812-1.812V45.786a1.812,1.812,0,0,1,3.623,0V95.408a1.812,1.812,0,0,1-1.812,1.812" transform="translate(-59.364 -36.154)" fill="#5c5c5c"/>
      <path id="Tracé_3398" data-name="Tracé 3398" d="M123.2,97.12H94.169V58.089H123.2ZM97.792,93.5h21.782V61.712H97.792Z" transform="translate(-66.542 -42.994)" fill="#5c5c5c"/>
      <path id="Tracé_3399" data-name="Tracé 3399" d="M138.058,99.56H109.03V72.949h29.028Zm-25.4-3.623h21.781V76.572H112.653Z" transform="translate(-73.743 -50.195)" fill="#5c5c5c"/>
      <path id="Tracé_3400" data-name="Tracé 3400" d="M29.029,99.56H0V72.949H29.029ZM3.623,95.936H25.406V76.572H3.623Z" transform="translate(-20.91 -50.195)" fill="#5c5c5c"/>
      <path id="Tracé_3401" data-name="Tracé 3401" d="M44.235,99.928H15.206V58.088H44.235ZM18.829,96.305H40.612V61.712H18.829Z" transform="translate(-28.278 -42.994)" fill="#5c5c5c"/>
    </g>
  </g>
  <g id="Groupe_4570" data-name="Groupe 4570">
    <g id="Groupe_4569" data-name="Groupe 4569" clip-path="url(#clip-path-2)">
      <path id="Tracé_3403" data-name="Tracé 3403" d="M72.8,73.114H28.172V69.49H72.8a8.468,8.468,0,0,0,8.459-8.459V9.668H29.894a8.468,8.468,0,0,0-8.459,8.459V62.752H17.811V18.128A12.1,12.1,0,0,1,29.894,6.045H84.879V61.032A12.1,12.1,0,0,1,72.8,73.114" transform="translate(-8.631 -2.929)" fill="#2484ff"/>
      <path id="Tracé_3404" data-name="Tracé 3404" d="M14.719,129.451a3.405,3.405,0,1,1,3.405,3.405,3.405,3.405,0,0,1-3.405-3.405" transform="translate(-7.132 -61.079)" fill="#5c5c5c"/>
      <path id="Tracé_3405" data-name="Tracé 3405" d="M180.262,22.467v23h-5.036v-23h-8.2V17.781h21.434v4.685Z" transform="translate(-80.937 -8.616)" fill="#5c5c5c"/>
      <path id="Tracé_3406" data-name="Tracé 3406" d="M217.881,36.188a4.079,4.079,0,0,0-3.083-1.171,4.166,4.166,0,0,0-3.4,1.561,4.973,4.973,0,0,0-1.054,3.163h8.784a5.282,5.282,0,0,0-1.25-3.553m6.091,7.106H210.385a5.357,5.357,0,0,0,1.484,3.982,4.28,4.28,0,0,0,3.006,1.249,3.8,3.8,0,0,0,2.967-.976,3.686,3.686,0,0,0,.976-1.718H223.5a8.032,8.032,0,0,1-1.718,3.748,8.7,8.7,0,0,1-6.833,2.85,8.857,8.857,0,0,1-6.4-2.5,11,11,0,0,1-3.123-8.121,11.4,11.4,0,0,1,2.927-8.121,8.805,8.805,0,0,1,6.482-2.576,8.576,8.576,0,0,1,7.417,3.748,11.4,11.4,0,0,1,1.757,7.066s-.039.937-.039,1.367" transform="translate(-99.545 -15.077)" fill="#5c5c5c"/>
      <path id="Tracé_3407" data-name="Tracé 3407" d="M259.938,42.9l-5.154.391c-1.484.117-2.928,1.015-2.928,2.655a2.671,2.671,0,0,0,2.889,2.538c3.045,0,5.192-1.64,5.192-4.647Zm4.1,9.331a3.186,3.186,0,0,1-3.436-2.85,7.12,7.12,0,0,1-6.168,3.045c-4.841,0-7.34-3.045-7.34-6.363,0-3.865,3.006-6.09,6.872-6.363l5.973-.43V38.023c0-1.913-.663-3.2-3.435-3.2-2.265,0-3.592,1.014-3.709,2.889H248.07c.273-4.568,3.9-6.6,8.433-6.6,3.474,0,6.441,1.093,7.613,4.137a11.232,11.232,0,0,1,.587,4.1v7.536c0,.938.312,1.288,1.132,1.288a2.97,2.97,0,0,0,.625-.078v3.592a4.936,4.936,0,0,1-2.421.546" transform="translate(-119.735 -15.077)" fill="#5c5c5c"/>
      <path id="Tracé_3408" data-name="Tracé 3408" d="M316.858,51.921V39.311c0-2.5-.663-3.944-3.123-3.944-2.772,0-3.983,2.929-3.983,5.466V51.921h-4.841V39.311c0-2.5-.663-3.944-3.123-3.944-2.771,0-4.02,2.929-4.02,5.466V51.921h-4.842v-20.3h4.061l.391,2.694a6.506,6.506,0,0,1,5.778-3.2,6.013,6.013,0,0,1,5.817,3.319,6.757,6.757,0,0,1,6.129-3.319c4.334,0,6.6,2.889,6.6,7.106v13.7Z" transform="translate(-141.944 -15.076)" fill="#5c5c5c"/>
      <path id="Tracé_3409" data-name="Tracé 3409" d="M379.15,52.4h-4.529l-4.606-13.7-4.529,13.7h-4.529L355.8,32.1h4.724l3.241,13.313,4.255-13.118h4.021l4.3,13.08L379.462,32.1h4.647Z" transform="translate(-172.413 -15.553)" fill="#5c5c5c"/>
      <rect id="Rectangle_1823" data-name="Rectangle 1823" width="4.959" height="20.302" transform="translate(215.72 16.544)" fill="#5c5c5c"/>
      <path id="Tracé_3410" data-name="Tracé 3410" d="M445.36,45.182c-3.318,0-5.544-1.6-5.544-5.466v-23h4.919V38.9c0,1.172.273,1.953,1.953,1.953.428,0,.545-.04.819-.04v4.1a8.11,8.11,0,0,1-2.147.273" transform="translate(-213.124 -8.103)" fill="#5c5c5c"/>
      <path id="Tracé_3411" data-name="Tracé 3411" d="M468.236,45.182c-3.318,0-5.544-1.6-5.544-5.466v-23h4.919V38.9c0,1.172.273,1.953,1.953,1.953.428,0,.545-.04.819-.04v4.1a8.111,8.111,0,0,1-2.147.273" transform="translate(-224.209 -8.103)" fill="#5c5c5c"/>
      <path id="Tracé_3412" data-name="Tracé 3412" d="M417.135,18.721a3.2,3.2,0,1,1,3.2,3.2,3.2,3.2,0,0,1-3.2-3.2" transform="translate(-202.133 -7.522)" fill="#5c5c5c"/>
      <path id="Tracé_3413" data-name="Tracé 3413" d="M191.151,92.847a2.877,2.877,0,0,0-2.057-.823h-3.026v9.816h3.026a2.884,2.884,0,0,0,2.057-.824c1.028-1.028,1.051-2.757,1.051-4.095s-.023-3.046-1.051-4.074m2.038,9.816a5.584,5.584,0,0,1-4.1,1.564h-5.681V89.636h5.681a5.586,5.586,0,0,1,4.1,1.564c1.5,1.544,1.708,3.7,1.708,5.722s-.207,4.2-1.708,5.741" transform="translate(-88.877 -43.435)" fill="#2484ff"/>
      <path id="Tracé_3414" data-name="Tracé 3414" d="M209.451,93.293h2.613v10.7h-2.613Zm-.083-4.137h2.758V91.81h-2.758Z" transform="translate(-101.454 -43.203)" fill="#2484ff"/>
      <path id="Tracé_3415" data-name="Tracé 3415" d="M222.99,97.959a1.988,1.988,0,1,0,1.895,2,1.843,1.843,0,0,0-1.895-2m.473,9.2h-2.016a1.323,1.323,0,0,0-.968,1.317c0,1.358,1.688,1.482,2.7,1.482,1.03,0,2.841-.062,2.841-1.482,0-1.317-1.585-1.317-2.552-1.317m-.185,4.836a6.431,6.431,0,0,1-3.786-.884,2.753,2.753,0,0,1-1.3-2.347,2.376,2.376,0,0,1,1.277-2.182,2.133,2.133,0,0,1-1.071-1.832,2.422,2.422,0,0,1,1.277-2.161,3.622,3.622,0,0,1-1.071-2.634c0-2.552,1.977-3.931,4.384-3.931a4.814,4.814,0,0,1,2.429.659,2.318,2.318,0,0,1,2.181-1.339,3.985,3.985,0,0,1,.7.041v2c-.062,0-.144-.021-.206-.021-.6,0-1.131.164-1.3.68a3.653,3.653,0,0,1,.556,1.935c0,2.448-2.057,3.889-4.363,3.889a5.336,5.336,0,0,1-1.729-.289.96.96,0,0,0-.534.761c0,.639.637.782,1.173.782h1.769a6.153,6.153,0,0,1,3.478.721,2.942,2.942,0,0,1,1.3,2.572c0,2.819-2.778,3.581-5.166,3.581" transform="translate(-105.731 -46.202)" fill="#2484ff"/>
      <path id="Tracé_3416" data-name="Tracé 3416" d="M240.719,93.293h2.613v10.7h-2.613Zm-.083-4.137h2.758V91.81h-2.758Z" transform="translate(-116.606 -43.203)" fill="#2484ff"/>
      <path id="Tracé_3417" data-name="Tracé 3417" d="M253.651,104.873c-2.162,0-3.232-1.234-3.232-3.293V96.146h-1.954V94.027h1.954V91.311l2.573-.639v3.355h2.7v2.119h-2.7v5.208c0,.823.371,1.172,1.194,1.172a12.9,12.9,0,0,0,1.667-.1v2.161a8.763,8.763,0,0,1-2.2.288" transform="translate(-120.4 -43.937)" fill="#2484ff"/>
      <path id="Tracé_3418" data-name="Tracé 3418" d="M271.008,102.88l-2.716.206a1.5,1.5,0,0,0-1.545,1.4,1.409,1.409,0,0,0,1.524,1.338c1.606,0,2.737-.865,2.737-2.449Zm2.161,4.919a1.678,1.678,0,0,1-1.811-1.5,3.754,3.754,0,0,1-3.252,1.606c-2.551,0-3.868-1.606-3.868-3.355,0-2.038,1.584-3.211,3.622-3.354l3.148-.226v-.659c0-1.008-.35-1.687-1.811-1.687-1.193,0-1.893.534-1.954,1.523h-2.491c.144-2.409,2.058-3.478,4.445-3.478,1.831,0,3.4.575,4.013,2.18a5.909,5.909,0,0,1,.308,2.162v3.971c0,.495.166.679.6.679a1.592,1.592,0,0,0,.33-.041v1.893a2.6,2.6,0,0,1-1.277.289" transform="translate(-128.043 -46.841)" fill="#2484ff"/>
      <path id="Tracé_3419" data-name="Tracé 3419" d="M290.121,104.081A2.6,2.6,0,0,1,287.2,101.2V89.077h2.594v11.69c0,.617.144,1.029,1.029,1.029.226,0,.288-.021.432-.021v2.16a4.242,4.242,0,0,1-1.131.145" transform="translate(-139.168 -43.164)" fill="#2484ff"/>
    </g>
  </g>
</svg>
