<svg width="26" height="25" viewBox="0 0 26 25" fill="none" xmlns="http://www.w3.org/2000/svg">
<g clip-path="url(#clip0_2957_1786)">
<path d="M11.8169 10.5469C12.4875 10.1584 13.1725 9.76777 13.8353 9.38991C14.0889 9.24557 14.3397 9.10234 14.5911 8.95911L15.2795 8.56565L15.3063 8.55004C16.7594 7.7202 18.2616 6.86194 19.7371 6.0137C19.8541 5.94627 20.2365 5.69381 20.2454 5.2708C20.2571 4.69343 20.2566 4.12664 20.2554 3.52641V3.5214C20.2554 3.34974 20.2549 3.17698 20.2549 3.00198C20.2549 2.78797 20.1406 2.58622 19.9567 2.47587C19.8614 2.41903 19.7527 2.38893 19.6418 2.38893C19.5414 2.38893 19.4411 2.41401 19.3525 2.46138C19.3084 2.48479 19.2689 2.50597 19.2315 2.52547C19.1563 2.56504 19.0855 2.60238 19.0141 2.64307L17.7327 3.37426C15.6307 4.5736 13.4574 5.81363 11.3181 7.04362C9.26182 5.86211 7.17992 4.67336 5.16603 3.52362L3.80486 2.74617C3.70397 2.68877 3.60252 2.63192 3.48491 2.56616L3.48212 2.56449L3.28424 2.45358C3.19283 2.40231 3.08915 2.375 2.98436 2.375C2.87957 2.375 2.76809 2.40398 2.67445 2.45915C2.48772 2.56839 2.37122 2.77125 2.37122 2.98805C2.37122 3.20484 2.37122 3.39767 2.37178 3.59663C2.37289 4.12385 2.37401 4.62209 2.36732 5.12033C2.36174 5.51491 2.53398 5.81419 2.87846 6.01036C5.53113 7.51957 8.20554 9.04717 10.8264 10.5508C10.9875 10.6433 11.1525 10.6901 11.317 10.6901C11.4814 10.6901 11.652 10.6422 11.8169 10.5469Z" fill="white"/>
<path d="M14.7854 12.7207C14.8489 12.7146 14.9158 12.7112 14.9899 12.7112C15.1756 12.7112 15.3757 12.7307 15.588 12.7508C15.7279 12.7642 15.8718 12.7781 16.0211 12.7876C16.0429 12.7898 16.0652 12.7915 16.0875 12.7915C16.1482 12.7915 16.209 12.7826 16.2675 12.7642C16.6226 12.6549 16.6906 12.3261 16.7196 12.1857C16.8907 11.3569 17.4804 10.8024 18.2218 10.7723C18.4436 10.7634 18.666 10.75 18.8812 10.7378C19.2814 10.7144 19.6593 10.6921 20.0328 10.6921C20.7468 10.6921 21.2908 10.7762 21.7969 10.9652C21.8655 10.9908 21.938 11.0042 22.0115 11.0042C22.1258 11.0042 22.2378 10.9724 22.3354 10.9117C22.4954 10.8119 22.6029 10.6408 22.6219 10.453C22.6225 10.4457 22.6236 10.4379 22.6247 10.4301C22.6303 10.3883 22.6381 10.3287 22.6381 10.2596C22.6381 9.58357 22.6392 8.90811 22.6408 8.23209V8.1875C22.6442 6.4916 22.647 4.73773 22.633 3.00782C22.6264 2.17074 22.3148 1.40666 21.7568 0.857149C21.1988 0.308195 20.428 0.00501583 19.5857 0.0039012C17.3795 0.00111463 15.0518 0 12.6667 0C9.63611 0 6.49125 0.00222926 3.05264 0.00613046C2.6959 0.00613046 2.34585 0.0596326 2.04151 0.159949C1.41555 0.366155 0.896606 0.74903 0.540984 1.26789C0.188149 1.78173 0.00141937 2.42042 0.00141937 3.11594C-0.00081024 6.83602 -0.000252839 10.638 0.00197677 14.7382C0.00197677 14.9561 0.00699338 15.2108 0.0610613 15.4716C0.208773 16.1827 0.574428 16.7846 1.11957 17.2126C1.66136 17.6379 2.34474 17.863 3.09556 17.8641C4.1379 17.8658 5.29228 17.8664 6.62447 17.8664C7.48565 17.8664 8.34349 17.8664 9.19019 17.8658H9.50289L11.349 17.8653C11.4265 17.8653 11.4989 17.8608 11.5686 17.8563L11.5837 17.8552C11.6099 17.8536 11.6377 17.8519 11.6673 17.8502C11.8551 17.8407 12.0251 17.7482 12.1349 17.5955C12.2442 17.4434 12.2782 17.2522 12.2275 17.0716C12.0731 16.5227 12.1177 16.0618 12.3679 15.6226L12.3852 15.592C12.7709 14.9148 13.1695 14.2149 13.5747 13.5377C13.8735 13.0378 14.2698 12.7703 14.7859 12.7196L14.7854 12.7207ZM10.9148 16.6397H9.50233H9.28049C8.397 16.6397 7.50182 16.6403 6.60217 16.6403C5.24378 16.6403 4.13009 16.6397 3.09723 16.6381C2.13125 16.6369 1.44509 16.1075 1.26115 15.2219C1.23049 15.0742 1.2277 14.8942 1.2277 14.7371C1.22492 10.6369 1.22492 6.83602 1.22715 3.1165C1.22715 2.21477 1.653 1.57887 2.42444 1.32474C2.60727 1.26455 2.82466 1.23278 3.05375 1.23222C6.48957 1.22776 9.63722 1.22553 12.6767 1.22553C15.0619 1.22553 17.3857 1.22665 19.5841 1.22943C20.6649 1.23055 21.3973 1.94948 21.4056 3.0173C21.4201 4.74107 21.4168 6.4916 21.4134 8.18472V8.19363C21.4123 8.65788 21.4118 9.12268 21.4112 9.58692C20.9937 9.50499 20.5428 9.46598 20.0233 9.46598C19.6119 9.46598 19.2039 9.48995 18.8093 9.5128C18.6103 9.5245 18.3845 9.53787 18.1716 9.54623C16.996 9.59416 16.025 10.3594 15.6304 11.5225C15.4225 11.5024 15.209 11.4846 14.9888 11.4846C14.874 11.4846 14.7681 11.4896 14.665 11.4996C13.7609 11.5882 13.0195 12.0753 12.5212 12.9091C12.1087 13.5996 11.7069 14.3046 11.3189 14.9862L11.3016 15.0168C11.0095 15.5301 10.8813 16.064 10.9148 16.6392V16.6397Z" fill="white" stroke="white" stroke-width="0.7"/>
<path d="M25.7618 19.9043C25.6537 19.8207 25.5467 19.7376 25.4402 19.6546L25.433 19.649C25.1827 19.454 24.9241 19.2522 24.6599 19.0588C24.6888 18.6542 24.6888 18.2446 24.6599 17.8394C24.928 17.6438 25.1877 17.4393 25.4397 17.2409L25.443 17.2381C25.5495 17.1545 25.6559 17.0703 25.763 16.9873C26.0038 16.8 26.0701 16.4601 25.9174 16.1959L24.7279 14.1411C24.6186 13.9522 24.4152 13.8351 24.1972 13.8351C24.1175 13.8351 24.0395 13.8502 23.9659 13.8808C23.8488 13.9287 23.7329 13.9756 23.6181 14.0218L23.559 14.0458C23.2491 14.1712 22.9542 14.2904 22.6549 14.4164C22.3126 14.1985 21.9671 13.9984 21.6259 13.8206C21.5897 13.4913 21.5418 13.1647 21.496 12.8481C21.476 12.7099 21.4559 12.5722 21.437 12.4351C21.3952 12.1336 21.1337 11.9062 20.8294 11.9062H18.451C18.1461 11.9062 17.8846 12.1342 17.8434 12.4363C17.8239 12.5778 17.8044 12.7183 17.7849 12.8576C17.7403 13.1741 17.6946 13.4996 17.6561 13.8234C17.2799 14.0196 16.9426 14.2146 16.6305 14.4153C16.3239 14.286 16.014 14.1617 15.713 14.0408L15.6879 14.0307C15.5642 13.9811 15.4393 13.931 15.3145 13.8803C15.2409 13.8502 15.1634 13.8351 15.0843 13.8351C14.8658 13.8351 14.6623 13.9527 14.5531 14.1416L13.3658 16.1981C13.2131 16.4629 13.2799 16.8034 13.5219 16.9901C13.6233 17.0687 13.7248 17.1461 13.8256 17.223L13.844 17.237C14.1155 17.4443 14.3719 17.6405 14.6194 17.8428C14.6311 18.2412 14.6305 18.6481 14.6188 19.0549C14.3713 19.2572 14.116 19.4517 13.8474 19.6568C13.7392 19.7393 13.6306 19.8223 13.5213 19.9065C13.2788 20.0932 13.2119 20.4343 13.3652 20.699L14.5558 22.7577C14.6651 22.9466 14.8685 23.0637 15.087 23.0637C15.1668 23.0637 15.2448 23.0481 15.3189 23.018C15.4572 22.9617 15.5926 22.906 15.7269 22.8513C16.0374 22.7254 16.3317 22.605 16.6294 22.4796C16.9594 22.6925 17.3033 22.8915 17.6544 23.0726C17.7013 23.4817 17.7564 23.884 17.8194 24.2725C17.8657 24.5578 18.1355 24.9836 18.568 24.9914C19.044 25.0003 19.5011 25.0015 19.9242 25.0015C20.073 25.0015 20.2229 25.0015 20.3751 25.0015H20.8277C21.1321 25.0015 21.3929 24.7741 21.4347 24.4726C21.4548 24.3299 21.4754 24.1889 21.496 24.0485V24.0429C21.5451 23.7141 21.5908 23.4014 21.6254 23.0782C22.0089 22.8831 22.3489 22.6864 22.661 22.4796C22.9615 22.6089 23.2675 22.7332 23.564 22.853C23.6983 22.9076 23.8316 22.9611 23.9648 23.0163C24.0389 23.047 24.117 23.062 24.1972 23.062C24.4157 23.062 24.6192 22.9444 24.7284 22.7555L25.9174 20.6962C26.0701 20.4315 26.0026 20.091 25.7607 19.9043H25.7618ZM15.4856 19.9293C15.7375 19.7204 15.8356 19.3832 15.8429 19.158C15.8585 18.6793 15.8585 18.2 15.8429 17.7324C15.8356 17.51 15.7364 17.1751 15.4811 16.9633C15.2236 16.7499 14.9572 16.5442 14.6969 16.3453L15.349 15.2156C15.6612 15.341 15.9588 15.4614 16.2598 15.5895C16.3997 15.6492 16.5324 15.6787 16.6639 15.6787C16.8501 15.6787 17.0296 15.6202 17.2113 15.5004C17.5357 15.2864 17.8936 15.0796 18.3049 14.8678C18.427 14.8048 18.7999 14.6137 18.8595 14.0876C18.8958 13.7716 18.9387 13.4589 18.9844 13.1318H20.2976C20.3422 13.4383 20.3863 13.751 20.4175 14.0564C20.4676 14.5496 20.777 14.7625 21.0055 14.8801C21.36 15.0623 21.7212 15.2724 22.0791 15.5043C22.1973 15.5806 22.3823 15.6821 22.6237 15.6821C22.748 15.6821 22.8751 15.6547 23.001 15.6012C23.3065 15.4708 23.6119 15.3466 23.933 15.2167L24.5891 16.3497C24.36 16.5303 24.1248 16.7136 23.8912 16.882C23.5506 17.1277 23.4007 17.456 23.4336 17.8862C23.462 18.2602 23.462 18.6386 23.4336 19.0109C23.4007 19.44 23.5501 19.7688 23.8912 20.0163C24.1253 20.1863 24.3522 20.3618 24.5885 20.5463L23.9336 21.6804C23.6298 21.5573 23.3399 21.4391 23.0506 21.3126C22.9102 21.2513 22.7697 21.2201 22.632 21.2201C22.3667 21.2201 22.1655 21.3349 22.0373 21.4218C21.7385 21.6236 21.4074 21.8153 21.0256 22.0081C20.7876 22.1285 20.4649 22.3464 20.4158 22.8536C20.3863 23.1562 20.3433 23.4588 20.2965 23.7765C20.1644 23.7765 20.0345 23.7765 19.9052 23.7765C19.6299 23.7765 19.3144 23.7759 18.9827 23.772C18.9359 23.4583 18.8947 23.1367 18.859 22.8123C18.8194 22.4529 18.6377 22.1959 18.3027 22.0276C17.927 21.8381 17.5608 21.6264 17.213 21.3973C17.0307 21.2769 16.8495 21.2184 16.66 21.2184C16.5279 21.2184 16.3969 21.2468 16.2593 21.3054C15.9605 21.4324 15.6623 21.5545 15.3496 21.6815L14.6957 20.5513C14.9672 20.344 15.2253 20.145 15.4845 19.9299L15.4856 19.9293Z" fill="white" stroke="white" stroke-width="0.2" stroke-linejoin="round"/>
<path d="M19.6303 21.4604H19.6537C21.3114 21.447 22.6564 20.0905 22.6508 18.437C22.6452 16.7873 21.2952 15.4453 19.6409 15.4453H19.6286C17.9692 15.452 16.6242 16.8046 16.6309 18.4604C16.6337 19.2557 16.9492 20.0075 17.5188 20.5771C18.0885 21.1466 18.8382 21.4604 19.6303 21.4604Z" fill="white"/>
</g>
<defs>
<clipPath id="clip0_2957_1786">
<rect width="26" height="25" fill="white"/>
</clipPath>
</defs>
</svg>
